<svg width="567" height="55" viewBox="0 0 567 55" fill="none" xmlns="http://www.w3.org/2000/svg">
<g clip-path="url(#clip0_2_500)">
<g clip-path="url(#clip1_2_500)">
<g clip-path="url(#clip2_2_500)">
<g clip-path="url(#clip3_2_500)">
<g clip-path="url(#clip4_2_500)">
<g clip-path="url(#clip5_2_500)">
<g clip-path="url(#clip6_2_500)">
<path d="M29.1432 54.2668H4.6809C3.66164 54.2668 2.91842 54.0356 2.45126 53.5732C1.9841 53.1108 1.75052 52.3752 1.75052 51.3663V10.5067C1.75052 9.9602 1.82696 9.49779 1.97985 9.11946C2.12425 8.74113 2.34509 8.42586 2.64237 8.17364L10.8602 1.30064C11.0725 1.1325 11.3613 0.993774 11.7266 0.884479C12.0833 0.783591 12.474 0.733148 12.8987 0.733148H33.2203C37.6371 0.733148 40.886 1.58229 42.9669 3.28057C45.0479 4.98726 46.0884 7.56411 46.0884 11.0111V14.0378C46.0884 15.509 45.8888 16.7701 45.4896 17.8211C45.0819 18.872 44.4746 19.7127 43.6677 20.3433L43.4766 20.4694C45.7699 20.9738 47.4899 22.0541 48.6366 23.7104C49.7833 25.375 50.3566 27.6787 50.3566 30.6212V36.4223C50.3566 38.3139 50.0806 39.9407 49.5285 41.3027C48.9764 42.6731 48.1482 43.8207 47.044 44.7455L38.8262 51.6185C37.7645 52.5013 36.4267 53.1655 34.8129 53.6111C33.199 54.0483 31.3091 54.2668 29.1432 54.2668ZM12.8987 46.7633H37.361C41.5655 46.7633 44.6742 45.9226 46.6873 44.2411C48.7088 42.5596 49.7196 39.9534 49.7196 36.4223V30.6212C49.7196 27.5525 49.0613 25.2195 47.7447 23.6221C46.4282 22.0247 44.4109 21.0999 41.6929 20.8477C42.9669 20.3012 43.914 19.4689 44.5341 18.3507C45.1456 17.2409 45.4514 15.8033 45.4514 14.0378V11.0111C45.4514 7.73225 44.4534 5.30253 42.4573 3.72195C40.4613 2.14978 37.3822 1.3637 33.2203 1.3637H12.8987C12.0918 1.3637 11.51 1.54025 11.1532 1.89336C10.788 2.25487 10.6054 2.83498 10.6054 3.63368V44.4933C10.6054 45.292 10.788 45.8679 11.1532 46.221C11.51 46.5825 12.0918 46.7633 12.8987 46.7633ZM34.8129 41.0883H17.6765V7.03865H30.6084C32.3496 7.03865 33.7724 7.2152 34.8766 7.56831C35.9808 7.92983 36.8301 8.41325 37.4247 9.01858C38.0193 9.63231 38.4227 10.3385 38.6351 11.1372C38.8474 11.9359 38.9536 12.7977 38.9536 13.7225V17.758C38.9536 19.0191 38.7328 20.1751 38.2911 21.226C37.8409 22.2769 36.7027 23.0336 34.8766 23.496C36.6178 23.496 38.0405 23.6726 39.1447 24.0257C40.2489 24.3872 41.0983 24.8958 41.6929 25.5516C42.2874 26.199 42.6782 26.964 42.865 27.8468C43.0604 28.7296 43.1581 29.6964 43.1581 30.7473V34.7828C43.1581 35.7077 43.0519 36.5568 42.8395 37.3303C42.6272 38.1122 42.2365 38.7763 41.6674 39.3228C41.0898 39.8693 40.2489 40.2981 39.1447 40.6091C38.0405 40.9286 36.5966 41.0883 34.8129 41.0883ZM30.6084 7.6692H18.3135V23.496H30.6084C32.3496 23.496 33.7299 23.3405 34.7491 23.0294C35.7684 22.7099 36.5456 22.2853 37.0807 21.7557C37.6073 21.2344 37.9471 20.6249 38.1 19.9271C38.2444 19.2377 38.3166 18.5147 38.3166 17.758V13.7225C38.3166 12.041 37.8282 10.6118 36.8514 9.43474C35.8746 8.25771 33.7936 7.6692 30.6084 7.6692ZM24.9387 18.893V12.083H30.3536C31.1605 12.083 31.7678 12.2932 32.1755 12.7136C32.5747 13.134 32.7743 13.7645 32.7743 14.6052V16.3708C32.7743 17.2115 32.5747 17.8421 32.1755 18.2624C31.7678 18.6828 31.1605 18.893 30.3536 18.893H24.9387ZM34.8766 24.1266H18.3135V40.4578H34.8129C37.998 40.4578 40.079 39.9407 41.0558 38.9066C42.0326 37.881 42.521 36.5064 42.521 34.7828V30.7473C42.521 28.8557 42.0454 27.2793 41.0941 26.0182C40.1343 24.7571 38.0617 24.1266 34.8766 24.1266ZM24.9387 36.0439V28.6035H33.2203C34.0272 28.6035 34.6345 28.801 35.0422 29.1962C35.4414 29.5997 35.641 30.2219 35.641 31.0626V33.5217C35.641 34.3625 35.4414 34.993 35.0422 35.4134C34.6345 35.8338 34.0272 36.0439 33.2203 36.0439H24.9387ZM83.3552 54.2668H56.2174C55.1981 54.2668 54.4549 54.0356 53.9877 53.5732C53.5206 53.1108 53.287 52.3752 53.287 51.3663V43.8628C53.287 43.3163 53.3592 42.8539 53.5036 42.4756C53.6565 42.0972 53.8816 41.782 54.1788 41.5297L61.887 35.0981V21.0369H56.2174C55.1981 21.0369 54.4549 20.8057 53.9877 20.3433C53.5206 19.8808 53.287 19.1452 53.287 18.1363V10.5067C53.287 9.9602 53.3592 9.49779 53.5036 9.11946C53.6565 8.74113 53.8816 8.42586 54.1788 8.17364L62.3966 1.30064C62.609 1.1325 62.8935 0.993774 63.2503 0.884479C63.6155 0.783591 64.0105 0.733148 64.4352 0.733148H91.573C92.5923 0.733148 93.3355 0.964349 93.8027 1.42675C94.2698 1.88916 94.5034 2.6248 94.5034 3.63368V11.2633C94.5034 11.8098 94.427 12.2722 94.2741 12.6505C94.1297 13.0289 93.9088 13.3441 93.6116 13.5964L86.0308 19.9019V34.0892H91.573C92.5923 34.0892 93.3355 34.3204 93.8027 34.7828C94.2698 35.2453 94.5034 35.9809 94.5034 36.9898V44.4933C94.5034 45.0398 94.427 45.5022 94.2741 45.8805C94.1297 46.2589 93.9088 46.5741 93.6116 46.8264L85.3301 53.6363C85.1602 53.8044 84.8926 53.9516 84.5274 54.0777C84.1706 54.2038 83.7799 54.2668 83.3552 54.2668ZM64.4352 46.7633H91.573C92.38 46.7633 92.9618 46.5825 93.3185 46.221C93.6838 45.8679 93.8664 45.292 93.8664 44.4933V36.9898C93.8664 36.1911 93.6838 35.611 93.3185 35.2495C92.9618 34.8963 92.38 34.7198 91.573 34.7198H85.3938V13.5333H91.573C92.38 13.5333 92.9618 13.3526 93.3185 12.991C93.6838 12.6379 93.8664 12.062 93.8664 11.2633V3.63368C93.8664 2.83498 93.6838 2.25487 93.3185 1.89336C92.9618 1.54025 92.38 1.3637 91.573 1.3637H64.4352C63.6283 1.3637 63.0422 1.54025 62.6769 1.89336C62.3202 2.25487 62.1418 2.83498 62.1418 3.63368V11.2633C62.1418 12.062 62.3202 12.6379 62.6769 12.991C63.0422 13.3526 63.6283 13.5333 64.4352 13.5333H70.7419V34.7198H64.4352C63.6283 34.7198 63.0422 34.8963 62.6769 35.2495C62.3202 35.611 62.1418 36.1911 62.1418 36.9898V44.4933C62.1418 45.292 62.3202 45.8679 62.6769 46.221C63.0422 46.5825 63.6283 46.7633 64.4352 46.7633ZM88.133 40.4578V41.0883H67.8752V40.4578H77.7493V7.6692H67.8752V7.03865H88.133V7.6692H78.3863V40.4578H88.133ZM134.573 54.2668H102.148C101.12 54.2668 100.377 54.0356 99.9183 53.5732C99.4511 53.1108 99.2175 52.3752 99.2175 51.3663V10.5067C99.2175 9.9602 99.2897 9.49779 99.4341 9.11946C99.5785 8.74113 99.8036 8.42586 100.109 8.17364L108.327 1.30064C108.54 1.1325 108.824 0.993774 109.181 0.884479C109.546 0.783591 109.941 0.733148 110.366 0.733148H120.24C121.259 0.733148 122.002 0.964349 122.469 1.42675C122.937 1.88916 123.17 2.6248 123.17 3.63368V29.2971L123.298 29.171L131.503 22.298C131.715 22.1298 132.004 21.9911 132.369 21.8818C132.734 21.7809 133.129 21.7305 133.554 21.7305H142.791C143.81 21.7305 144.553 21.9617 145.021 22.4241C145.488 22.8865 145.721 23.6221 145.721 24.631V44.4933C145.721 45.0398 145.645 45.5022 145.492 45.8805C145.348 46.2589 145.127 46.5741 144.83 46.8264L136.548 53.6363C136.37 53.8044 136.102 53.9516 135.745 54.0777C135.389 54.2038 134.998 54.2668 134.573 54.2668ZM110.366 46.7633H142.791C143.598 46.7633 144.18 46.5825 144.536 46.221C144.902 45.8679 145.084 45.292 145.084 44.4933V24.631C145.084 23.8323 144.902 23.2522 144.536 22.8907C144.18 22.5376 143.598 22.361 142.791 22.361H133.554C132.747 22.361 132.161 22.5376 131.796 22.8907C131.439 23.2522 131.261 23.8323 131.261 24.631V34.8459H122.533V3.63368C122.533 2.83498 122.351 2.25487 121.985 1.89336C121.629 1.54025 121.047 1.3637 120.24 1.3637H110.366C109.559 1.3637 108.973 1.54025 108.607 1.89336C108.251 2.25487 108.072 2.83498 108.072 3.63368V44.4933C108.072 45.292 108.251 45.8679 108.607 46.221C108.973 46.5825 109.559 46.7633 110.366 46.7633ZM138.459 41.0883H115.016V7.03865H115.653V40.4578H137.822V28.036H138.459V41.0883ZM185.205 54.2668H152.78C151.76 54.2668 151.017 54.0356 150.55 53.5732C150.083 53.1108 149.849 52.3752 149.849 51.3663V10.5067C149.849 9.9602 149.926 9.49779 150.079 9.11946C150.223 8.74113 150.444 8.42586 150.741 8.17364L158.959 1.30064C159.171 1.1325 159.46 0.993774 159.825 0.884479C160.182 0.783591 160.573 0.733148 160.998 0.733148H170.872C171.891 0.733148 172.634 0.964349 173.101 1.42675C173.568 1.88916 173.802 2.6248 173.802 3.63368V29.2971L173.929 29.171L182.147 22.298C182.36 22.1298 182.648 21.9911 183.014 21.8818C183.37 21.7809 183.761 21.7305 184.186 21.7305H193.423C194.442 21.7305 195.185 21.9617 195.652 22.4241C196.12 22.8865 196.353 23.6221 196.353 24.631V44.4933C196.353 45.0398 196.281 45.5022 196.137 45.8805C195.984 46.2589 195.759 46.5741 195.461 46.8264L187.18 53.6363C187.01 53.8044 186.747 53.9516 186.39 54.0777C186.025 54.2038 185.63 54.2668 185.205 54.2668ZM160.998 46.7633H193.423C194.23 46.7633 194.816 46.5825 195.181 46.221C195.538 45.8679 195.716 45.292 195.716 44.4933V24.631C195.716 23.8323 195.538 23.2522 195.181 22.8907C194.816 22.5376 194.23 22.361 193.423 22.361H184.186C183.379 22.361 182.797 22.5376 182.44 22.8907C182.075 23.2522 181.892 23.8323 181.892 24.631V34.8459H173.165V3.63368C173.165 2.83498 172.987 2.25487 172.63 1.89336C172.265 1.54025 171.679 1.3637 170.872 1.3637H160.998C160.191 1.3637 159.609 1.54025 159.252 1.89336C158.887 2.25487 158.704 2.83498 158.704 3.63368V44.4933C158.704 45.292 158.887 45.8679 159.252 46.221C159.609 46.5825 160.191 46.7633 160.998 46.7633ZM189.091 41.0883H165.648V7.03865H166.285V40.4578H188.454V28.036H189.091V41.0883ZM227.887 54.2668H203.424C202.405 54.2668 201.662 54.0356 201.195 53.5732C200.728 53.1108 200.494 52.3752 200.494 51.3663V10.5067C200.494 9.9602 200.57 9.49779 200.723 9.11946C200.868 8.74113 201.089 8.42586 201.386 8.17364L209.604 1.30064C209.816 1.1325 210.101 0.993774 210.457 0.884479C210.823 0.783591 211.217 0.733148 211.642 0.733148H231.964C236.381 0.733148 239.629 1.58229 241.71 3.28057C243.791 4.98726 244.832 7.56411 244.832 11.0111V14.0378C244.832 15.509 244.628 16.7701 244.22 17.8211C243.821 18.872 243.218 19.7127 242.411 20.3433L242.22 20.4694C244.513 20.9738 246.233 22.0541 247.38 23.7104C248.527 25.375 249.1 27.6787 249.1 30.6212V36.4223C249.1 38.3139 248.824 39.9407 248.272 41.3027C247.72 42.6731 246.892 43.8207 245.787 44.7455L237.57 51.6185C236.508 52.5013 235.17 53.1655 233.556 53.6111C231.942 54.0483 230.053 54.2668 227.887 54.2668ZM211.642 46.7633H236.104C240.309 46.7633 243.422 45.9226 245.443 44.2411C247.457 42.5596 248.463 39.9534 248.463 36.4223V30.6212C248.463 27.5525 247.805 25.2195 246.488 23.6221C245.172 22.0247 243.154 21.0999 240.436 20.8477C241.71 20.3012 242.653 19.4689 243.265 18.3507C243.885 17.2409 244.195 15.8033 244.195 14.0378V11.0111C244.195 7.73225 243.197 5.30253 241.201 3.72195C239.205 2.14978 236.126 1.3637 231.964 1.3637H211.642C210.835 1.3637 210.253 1.54025 209.897 1.89336C209.531 2.25487 209.349 2.83498 209.349 3.63368V44.4933C209.349 45.292 209.531 45.8679 209.897 46.221C210.253 46.5825 210.835 46.7633 211.642 46.7633ZM233.556 41.0883H216.42V7.03865H229.352C231.093 7.03865 232.516 7.2152 233.62 7.56831C234.724 7.92983 235.574 8.41325 236.168 9.01858C236.763 9.63231 237.166 10.3385 237.379 11.1372C237.591 11.9359 237.697 12.7977 237.697 13.7225V17.758C237.697 19.0191 237.476 20.1751 237.035 21.226C236.584 22.2769 235.446 23.0336 233.62 23.496C235.361 23.496 236.784 23.6726 237.888 24.0257C238.992 24.3872 239.842 24.8958 240.436 25.5516C241.031 26.199 241.426 26.964 241.621 27.8468C241.808 28.7296 241.902 29.6964 241.902 30.7473V34.7828C241.902 35.7077 241.795 36.5568 241.583 37.3303C241.371 38.1122 240.976 38.7763 240.398 39.3228C239.829 39.8693 238.992 40.2981 237.888 40.6091C236.784 40.9286 235.34 41.0883 233.556 41.0883ZM229.352 7.6692H217.057V23.496H229.352C231.093 23.496 232.473 23.3405 233.493 23.0294C234.512 22.7099 235.289 22.2853 235.824 21.7557C236.351 21.2344 236.691 20.6249 236.843 19.9271C236.988 19.2377 237.06 18.5147 237.06 17.758V13.7225C237.06 12.041 236.572 10.6118 235.595 9.43474C234.618 8.25771 232.537 7.6692 229.352 7.6692ZM223.682 18.893V12.083H229.097C229.904 12.083 230.511 12.2932 230.919 12.7136C231.318 13.134 231.518 13.7645 231.518 14.6052V16.3708C231.518 17.2115 231.318 17.8421 230.919 18.2624C230.511 18.6828 229.904 18.893 229.097 18.893H223.682ZM233.62 24.1266H217.057V40.4578H233.556C236.742 40.4578 238.823 39.9407 239.799 38.9066C240.776 37.881 241.264 36.5064 241.264 34.7828V30.7473C241.264 28.8557 240.789 27.2793 239.838 26.0182C238.878 24.7571 236.805 24.1266 233.62 24.1266ZM223.682 36.0439V28.6035H231.964C232.771 28.6035 233.378 28.801 233.786 29.1962C234.185 29.5997 234.384 30.2219 234.384 31.0626V33.5217C234.384 34.3625 234.185 34.993 233.786 35.4134C233.378 35.8338 232.771 36.0439 231.964 36.0439H223.682ZM297.579 44.4303L289.361 51.2402C287.875 52.5013 285.794 53.4808 283.118 54.1786C280.442 54.868 277.002 55.2127 272.798 55.2127C268.636 55.2127 265.226 54.7839 262.567 53.9263C259.917 53.0604 257.836 51.9128 256.324 50.4835C254.821 49.0543 253.78 47.4149 253.203 45.5653C252.634 43.7156 252.349 41.803 252.349 39.8272V20.2171C252.349 18.2835 252.625 16.4843 253.177 14.8196C253.729 13.1634 254.727 11.7468 256.171 10.5697L264.453 3.75979C265.939 2.49869 268.007 1.51923 270.657 0.821425C273.316 0.132023 276.769 -0.212677 281.016 -0.212677C285.178 -0.212677 288.584 0.123615 291.234 0.796202C293.892 1.46879 295.973 2.402 297.477 3.59585C298.989 4.79809 300.021 6.22734 300.573 7.88359C301.125 9.54824 301.401 11.3684 301.401 13.3441V34.8459C301.401 36.7796 301.125 38.5661 300.573 40.2056C300.021 41.845 299.023 43.2532 297.579 44.4303ZM300.764 34.8459V13.3441C300.764 11.4105 300.475 9.65333 299.898 8.07275C299.328 6.50058 298.309 5.147 296.84 4.01201C295.379 2.87702 293.362 1.99425 290.788 1.3637C288.223 0.733148 284.965 0.417873 281.016 0.417873C277.066 0.417873 273.796 0.733148 271.205 1.3637C268.615 1.99425 266.585 2.87702 265.115 4.01201C263.654 5.147 262.635 6.50058 262.057 8.07275C261.488 9.65333 261.204 11.4105 261.204 13.3441V34.8459C261.204 36.7796 261.488 38.5325 262.057 40.1047C262.635 41.6853 263.654 43.0304 265.115 44.1402C266.585 45.2584 268.615 46.1327 271.205 46.7633C273.796 47.3939 277.066 47.7091 281.016 47.7091C284.965 47.7091 288.223 47.3939 290.788 46.7633C293.362 46.1327 295.379 45.2584 296.84 44.1402C298.309 43.0304 299.328 41.6853 299.898 40.1047C300.475 38.5325 300.764 36.7796 300.764 34.8459ZM293.82 14.7944V33.3956C293.82 35.9178 292.907 37.965 291.081 39.5372C289.255 41.1178 285.857 41.9081 280.888 41.9081C275.919 41.9081 272.543 41.1178 270.759 39.5372C268.976 37.965 268.084 35.9178 268.084 33.3956V14.7944C268.084 12.2722 268.976 10.2208 270.759 8.64025C272.543 7.06807 275.919 6.28199 280.888 6.28199C285.857 6.28199 289.255 7.06807 291.081 8.64025C292.907 10.2208 293.82 12.2722 293.82 14.7944ZM268.721 14.7944V33.3956C268.721 35.7497 269.57 37.6498 271.269 39.0958C272.968 40.5503 276.174 41.2775 280.888 41.2775C285.602 41.2775 288.83 40.5503 290.571 39.0958C292.313 37.6498 293.183 35.7497 293.183 33.3956V14.7944C293.183 12.4404 292.313 10.5361 290.571 9.08163C288.83 7.63557 285.602 6.91254 280.888 6.91254C276.174 6.91254 272.968 7.63557 271.269 9.08163C269.57 10.5361 268.721 12.4404 268.721 14.7944ZM275.665 32.5759V15.6141C275.665 14.8154 275.983 14.1302 276.62 13.5585C277.257 12.9952 278.722 12.7136 281.016 12.7136C283.309 12.7136 284.774 12.9952 285.411 13.5585C286.048 14.1302 286.367 14.8154 286.367 15.6141V32.5759C286.367 33.4167 286.048 34.1187 285.411 34.682C284.774 35.2537 283.309 35.5395 281.016 35.5395C278.722 35.5395 277.257 35.2537 276.62 34.682C275.983 34.1187 275.665 33.4167 275.665 32.5759ZM276.302 20.6585V32.5759C276.302 32.9963 276.387 33.362 276.556 33.6731C276.726 33.9926 277.045 34.2574 277.512 34.4676V22.4871C277.512 22.0668 277.427 21.6968 277.257 21.3774C277.087 21.0663 276.769 20.8267 276.302 20.6585ZM321.659 27.6576V29.6123H346.503V27.6576C346.503 26.5226 346.406 25.4717 346.21 24.5049C346.015 23.538 345.773 22.6343 345.484 21.7935L341.089 11.5156C340.621 10.4226 340.133 9.5062 339.623 8.76636C339.114 8.03492 338.264 7.6692 337.075 7.6692H330.832C329.558 7.6692 328.666 8.03492 328.157 8.76636C327.647 9.5062 327.18 10.4016 326.755 11.4525L322.678 21.7935C322.372 22.6343 322.126 23.538 321.939 24.5049C321.752 25.4717 321.659 26.5226 321.659 27.6576ZM328.857 24.1896L331.851 14.6052C332.021 14.2269 332.2 13.9537 332.387 13.7855C332.582 13.6174 332.807 13.5333 333.062 13.5333H334.654C334.909 13.5333 335.13 13.6174 335.317 13.7855C335.512 13.9537 335.695 14.2269 335.865 14.6052L338.859 24.1896H328.857ZM347.14 41.0883H346.503V30.2429H321.659V41.0883H321.022V27.6576C321.022 26.4806 321.115 25.3961 321.302 24.404C321.489 23.4203 321.757 22.4661 322.105 21.5413L326.169 11.2003C326.645 10.0233 327.176 9.03539 327.762 8.23669C328.365 7.438 329.388 7.03865 330.832 7.03865H337.075C338.477 7.03865 339.462 7.438 340.031 8.23669C340.609 9.03539 341.152 10.0443 341.662 11.2633L346.057 21.5413C346.389 22.4661 346.652 23.4203 346.847 24.404C347.043 25.3961 347.14 26.4806 347.14 27.6576V41.0883ZM328.22 44.4933V35.6656H339.496V44.4933C339.496 45.292 339.696 45.8679 340.095 46.221C340.502 46.5825 341.131 46.7633 341.98 46.7633H351.6C352.407 46.7633 352.988 46.5825 353.345 46.221C353.702 45.8679 353.88 45.292 353.88 44.4933V27.8468C353.88 26.5857 353.681 25.1354 353.281 23.496C352.882 21.8566 352.258 19.9439 351.409 17.758L345.866 3.44452C345.611 2.72989 345.217 2.20443 344.681 1.86814C344.155 1.53185 343.488 1.3637 342.681 1.3637H325.532C324.691 1.3637 324.003 1.53185 323.468 1.86814C322.941 2.20443 322.551 2.72989 322.296 3.44452L316.754 17.758C315.904 19.9439 315.276 21.8566 314.868 23.496C314.46 25.1354 314.256 26.5857 314.256 27.8468V44.4933C314.256 45.292 314.439 45.8679 314.804 46.221C315.17 46.5825 315.756 46.7633 316.563 46.7633H325.927C326.725 46.7633 327.307 46.5825 327.672 46.221C328.038 45.8679 328.22 45.292 328.22 44.4933ZM327.966 46.8264L319.671 53.6363C319.51 53.8044 319.247 53.9516 318.881 54.0777C318.525 54.2038 318.134 54.2668 317.709 54.2668H308.345C307.325 54.2668 306.582 54.0356 306.115 53.5732C305.648 53.1108 305.414 52.3752 305.414 51.3663V34.7198C305.414 33.4167 305.614 31.9328 306.013 30.2681C306.412 28.6119 307.062 26.6488 307.962 24.3788L313.441 10.1283C313.56 9.75001 313.717 9.42213 313.912 9.14469C314.108 8.87565 314.312 8.63604 314.524 8.42586L314.575 8.3628L322.742 1.61592C323.082 1.32166 323.485 1.09886 323.952 0.947533C324.419 0.804608 324.946 0.733148 325.532 0.733148H342.681C343.658 0.733148 344.452 0.934923 345.064 1.33848C345.684 1.73362 346.142 2.35156 346.44 3.19229L351.969 17.5058C352.87 19.7758 353.519 21.7389 353.918 23.3951C354.318 25.0598 354.517 26.5437 354.517 27.8468V44.4933C354.517 45.0398 354.445 45.5022 354.301 45.8805C354.156 46.2589 353.935 46.5741 353.638 46.8264L345.357 53.6363C345.187 53.8044 344.919 53.9516 344.554 54.0777C344.189 54.2038 343.794 54.2668 343.369 54.2668H333.763C332.701 54.2668 331.915 54.0272 331.406 53.548C330.887 53.0604 330.628 52.3332 330.628 51.3663V43.1692H328.857V44.4933C328.857 45.0398 328.781 45.5022 328.628 45.8805C328.475 46.2589 328.254 46.5741 327.966 46.8264ZM389.491 7.6692H375.603V25.8921H389.491C392.124 25.8921 393.886 25.2615 394.778 24.0004C395.67 22.7393 396.116 20.9528 396.116 18.6408V14.2269C396.116 12.2932 395.577 10.7169 394.498 9.49779C393.411 8.27873 391.742 7.6692 389.491 7.6692ZM382.483 20.7846V12.7136H387.261C388.365 12.7136 389.109 12.9952 389.491 13.5585C389.873 14.1302 390.064 14.8365 390.064 15.6772V17.8211C390.064 18.6618 389.873 19.3638 389.491 19.9271C389.109 20.4988 388.365 20.7846 387.261 20.7846H382.483ZM375.603 26.4596V41.0883H374.966V7.03865H389.491C391.954 7.03865 393.78 7.71964 394.969 9.08163C396.158 10.452 396.753 12.1671 396.753 14.2269V18.5777C396.753 20.5114 396.498 22.1004 395.989 23.3447C395.479 24.5806 394.46 25.4297 392.931 25.8921H393.631C396.222 25.8921 398.154 26.468 399.429 27.6198C400.703 28.78 401.34 30.4531 401.34 32.639V41.0883H400.703V32.639C400.703 30.5792 400.129 29.0322 398.983 27.9981C397.836 26.9724 396.052 26.4596 393.631 26.4596H375.603ZM370.38 46.7633H380.19C380.997 46.7633 381.583 46.5825 381.948 46.221C382.305 45.8679 382.483 45.292 382.483 44.4933V32.1345H391.402C392.294 32.1345 392.922 32.3531 393.288 32.7903C393.644 33.2359 393.823 33.9211 393.823 34.8459V44.4933C393.823 45.292 394.005 45.8679 394.37 46.221C394.727 46.5825 395.309 46.7633 396.116 46.7633H405.99C406.797 46.7633 407.383 46.5825 407.748 46.221C408.105 45.8679 408.283 45.292 408.283 44.4933V31.1257C408.283 28.4773 407.574 26.3545 406.156 24.7571C404.729 23.1597 402.869 22.2349 400.575 21.9827C401.892 21.4362 402.818 20.5408 403.353 19.2965C403.879 18.0607 404.143 16.56 404.143 14.7944V11.8939C404.143 8.78317 403.242 6.24836 401.442 4.28945C399.632 2.33895 396.35 1.3637 391.593 1.3637H370.38C369.573 1.3637 368.991 1.54025 368.634 1.89336C368.269 2.25487 368.086 2.83498 368.086 3.63368V44.4933C368.086 45.292 368.269 45.8679 368.634 46.221C368.991 46.5825 369.573 46.7633 370.38 46.7633ZM382.229 46.8264L373.947 53.6363C373.777 53.8044 373.514 53.9516 373.157 54.0777C372.792 54.2038 372.397 54.2668 371.972 54.2668H362.162C361.143 54.2668 360.399 54.0356 359.932 53.5732C359.465 53.1108 359.231 52.3752 359.231 51.3663V10.5067C359.231 9.9602 359.308 9.49779 359.461 9.11946C359.605 8.74113 359.826 8.42586 360.123 8.17364L368.341 1.30064C368.553 1.1325 368.842 0.993774 369.207 0.884479C369.564 0.783591 369.955 0.733148 370.38 0.733148H391.593C396.647 0.733148 400.108 1.77566 401.977 3.86068C403.845 5.93729 404.78 8.61502 404.78 11.8939V14.7944C404.78 16.3498 404.589 17.7034 404.206 18.8552C403.824 20.0154 403.208 20.9528 402.359 21.6674H402.295C404.291 22.2139 405.897 23.3068 407.111 24.9463C408.317 26.5857 408.92 28.6455 408.92 31.1257V44.4933C408.92 45.0398 408.848 45.5022 408.704 45.8805C408.551 46.2589 408.326 46.5741 408.029 46.8264L399.747 53.6363C399.577 53.8044 399.314 53.9516 398.957 54.0777C398.592 54.2038 398.197 54.2668 397.772 54.2668H387.898C386.879 54.2668 386.136 54.0356 385.669 53.5732C385.201 53.1108 384.968 52.3752 384.968 51.3663V41.7189C384.968 41.0463 384.84 40.5293 384.586 40.1677C384.331 39.8146 383.864 39.6381 383.184 39.6381H383.12V44.4933C383.12 45.0398 383.048 45.5022 382.904 45.8805C382.751 46.2589 382.526 46.5741 382.229 46.8264ZM457.845 44.115L449.564 50.9249C448.247 52.0179 446.569 52.8502 444.531 53.4219C442.492 53.9852 440.093 54.2668 437.332 54.2668H415.864C414.845 54.2668 414.102 54.0356 413.635 53.5732C413.167 53.1108 412.934 52.3752 412.934 51.3663V10.5067C412.934 9.9602 413.01 9.49779 413.163 9.11946C413.308 8.74113 413.528 8.42586 413.826 8.17364L422.043 1.30064C422.256 1.1325 422.545 0.993774 422.91 0.884479C423.267 0.783591 423.657 0.733148 424.082 0.733148H445.55C451.114 0.733148 455.225 1.84712 457.883 4.07507C460.533 6.30301 461.858 9.68696 461.858 14.2269V33.9001C461.858 36.1701 461.519 38.1542 460.839 39.8525C460.16 41.5592 459.162 42.98 457.845 44.115ZM424.082 46.7633H445.55C450.859 46.7633 454.8 45.7124 457.374 43.6105C459.939 41.5087 461.221 38.2719 461.221 33.9001V14.2269C461.221 9.85511 459.939 6.61828 457.374 4.51645C454.8 2.41461 450.859 1.3637 445.55 1.3637H424.082C423.275 1.3637 422.693 1.54025 422.336 1.89336C421.971 2.25487 421.789 2.83498 421.789 3.63368V44.4933C421.789 45.292 421.971 45.8679 422.336 46.221C422.693 46.5825 423.275 46.7633 424.082 46.7633ZM444.149 41.0883H428.732V7.03865H444.149C446.315 7.03865 448.069 7.26985 449.411 7.73225C450.744 8.19466 451.772 8.8126 452.494 9.58607C453.216 10.368 453.704 11.2928 453.959 12.3605C454.214 13.4366 454.341 14.5842 454.341 15.8033V32.5129C454.341 33.7319 454.227 34.8669 453.997 35.9178C453.759 36.9688 453.28 37.8725 452.558 38.6292C451.836 39.3859 450.795 39.9828 449.436 40.42C448.077 40.8656 446.315 41.0883 444.149 41.0883ZM444.149 7.6692H429.369V40.4578H444.149C446.187 40.4578 447.835 40.256 449.092 39.8525C450.341 39.4573 451.305 38.9108 451.984 38.213C452.664 37.5236 453.122 36.6829 453.36 35.6908C453.59 34.7072 453.704 33.6479 453.704 32.5129V15.8033C453.704 14.6683 453.577 13.5964 453.322 12.5875C453.067 11.5786 452.6 10.7169 451.921 10.0022C451.241 9.28761 450.277 8.72012 449.028 8.29975C447.771 7.87938 446.145 7.6692 444.149 7.6692ZM436.249 34.8459V13.4072H443.83C444.849 13.4072 445.605 13.6468 446.098 14.126C446.582 14.6137 446.824 15.3829 446.824 16.4338V31.7562C446.824 32.8071 446.582 33.5848 446.098 34.0892C445.605 34.5937 444.849 34.8459 443.83 34.8459H436.249ZM437.969 34.2154V23.3068C437.969 22.7604 437.884 22.298 437.715 21.9196C437.545 21.5413 437.269 21.2681 436.886 21.0999V34.2154H437.969ZM490.716 54.2668H480.396C479.334 54.2668 478.579 54.0356 478.128 53.5732C477.687 53.1108 477.466 52.3752 477.466 51.3663V43.4844L467.847 30.7473C466.827 29.4022 466.148 28.2251 465.808 27.2162C465.468 26.2074 465.298 24.673 465.298 22.6132V10.5067C465.298 9.9602 465.371 9.49779 465.515 9.11946C465.668 8.74113 465.893 8.42586 466.19 8.17364L474.408 1.30064C474.62 1.1325 474.905 0.993774 475.262 0.884479C475.627 0.783591 476.022 0.733148 476.447 0.733148H486.257C487.276 0.733148 488.019 0.964349 488.487 1.42675C488.954 1.88916 489.187 2.6248 489.187 3.63368V13.9747C489.187 14.353 489.209 14.7314 489.251 15.1097C489.294 15.488 489.421 15.8874 489.633 16.3077L490.398 17.3797V10.5067C490.398 9.9602 490.47 9.49779 490.614 9.11946C490.767 8.74113 490.992 8.42586 491.29 8.17364L499.507 1.30064C499.72 1.1325 500.004 0.993774 500.361 0.884479C500.726 0.783591 501.121 0.733148 501.546 0.733148H511.038C512.057 0.733148 512.8 0.964349 513.267 1.42675C513.735 1.88916 513.968 2.6248 513.968 3.63368V15.7402C513.968 17.8 513.798 19.3344 513.459 20.3433C513.119 21.3521 512.439 22.5292 511.42 23.8743L501.864 36.6745V44.4933C501.864 45.0398 501.788 45.5022 501.635 45.8805C501.491 46.2589 501.27 46.5741 500.973 46.8264L492.691 53.6363C492.521 53.8044 492.254 53.9516 491.888 54.0777C491.532 54.2038 491.141 54.2668 490.716 54.2668ZM488.614 46.7633H498.934C499.741 46.7633 500.323 46.5825 500.68 46.221C501.045 45.8679 501.227 45.292 501.227 44.4933V36.4853L510.91 23.496C511.845 22.1929 512.482 21.0579 512.822 20.091C513.161 19.1242 513.331 17.6739 513.331 15.7402V3.63368C513.331 2.83498 513.149 2.25487 512.783 1.89336C512.427 1.54025 511.845 1.3637 511.038 1.3637H501.546C500.739 1.3637 500.153 1.54025 499.788 1.89336C499.431 2.25487 499.253 2.83498 499.253 3.63368V13.9747C499.253 14.3951 499.231 14.8364 499.189 15.2989C499.146 15.7613 498.977 16.2026 498.679 16.623L495.749 21.163C495.537 21.5413 495.311 21.8145 495.074 21.9827C494.844 22.1508 494.56 22.2349 494.22 22.2349H493.583C493.243 22.2349 492.954 22.1508 492.717 21.9827C492.487 21.8145 492.266 21.5413 492.054 21.163L489.124 16.623C488.826 16.2026 488.657 15.7613 488.614 15.2989C488.572 14.8364 488.55 14.3951 488.55 13.9747V3.63368C488.55 2.83498 488.368 2.25487 488.002 1.89336C487.646 1.54025 487.064 1.3637 486.257 1.3637H476.447C475.64 1.3637 475.054 1.54025 474.688 1.89336C474.332 2.25487 474.153 2.83498 474.153 3.63368V15.7402C474.153 17.6739 474.31 19.1242 474.625 20.091C474.947 21.0579 475.597 22.1929 476.574 23.496L486.321 36.4223V44.4933C486.321 45.292 486.499 45.8679 486.856 46.221C487.221 46.5825 487.807 46.7633 488.614 46.7633ZM494.539 30.3059H494.093V41.0883H493.456V30.3059H492.818C491.884 30.3059 491.043 30.0958 490.296 29.6754C489.557 29.255 488.848 28.5824 488.168 27.6576L481.989 19.1452C481.522 18.5147 481.246 17.779 481.161 16.9383C481.076 16.0976 481.033 15.2148 481.033 14.29V7.03865H481.67V14.29C481.67 15.1727 481.713 16.0009 481.798 16.7743C481.883 17.5562 482.137 18.2624 482.562 18.893L488.741 27.4054C489.294 28.2461 489.931 28.8347 490.653 29.171C491.375 29.5072 492.097 29.6754 492.818 29.6754H494.539C495.345 29.6754 496.076 29.4946 496.73 29.1331C497.392 28.78 498.042 28.2041 498.679 27.4054L505.05 18.893C505.474 18.3465 505.729 17.6613 505.814 16.8374C505.899 16.0219 505.942 15.1727 505.942 14.29V7.03865H506.579V14.29C506.579 15.2148 506.545 16.0849 506.477 16.9005C506.417 17.7244 506.133 18.4726 505.623 19.1452L499.253 27.6576C498.573 28.5824 497.86 29.255 497.112 29.6754C496.373 30.0958 495.515 30.3059 494.539 30.3059ZM541.998 54.2668H531.678C530.616 54.2668 529.86 54.0356 529.41 53.5732C528.968 53.1108 528.748 52.3752 528.748 51.3663V43.4844L519.128 30.7473C518.109 29.4022 517.429 28.2251 517.09 27.2162C516.75 26.2074 516.58 24.673 516.58 22.6132V10.5067C516.58 9.9602 516.652 9.49779 516.797 9.11946C516.95 8.74113 517.175 8.42586 517.472 8.17364L525.69 1.30064C525.902 1.1325 526.187 0.993774 526.543 0.884479C526.909 0.783591 527.304 0.733148 527.728 0.733148H537.539C538.558 0.733148 539.301 0.964349 539.768 1.42675C540.235 1.88916 540.469 2.6248 540.469 3.63368V13.9747C540.469 14.353 540.49 14.7314 540.533 15.1097C540.575 15.488 540.703 15.8874 540.915 16.3077L541.679 17.3797V10.5067C541.679 9.9602 541.752 9.49779 541.896 9.11946C542.049 8.74113 542.274 8.42586 542.571 8.17364L550.789 1.30064C551.001 1.1325 551.286 0.993774 551.643 0.884479C552.008 0.783591 552.403 0.733148 552.828 0.733148H562.319C563.339 0.733148 564.082 0.964349 564.549 1.42675C565.016 1.88916 565.25 2.6248 565.25 3.63368V15.7402C565.25 17.8 565.08 19.3344 564.74 20.3433C564.4 21.3521 563.721 22.5292 562.702 23.8743L553.146 36.6745V44.4933C553.146 45.0398 553.07 45.5022 552.917 45.8805C552.772 46.2589 552.552 46.5741 552.254 46.8264L543.973 53.6363C543.803 53.8044 543.535 53.9516 543.17 54.0777C542.813 54.2038 542.423 54.2668 541.998 54.2668ZM539.896 46.7633H550.216C551.023 46.7633 551.604 46.5825 551.961 46.221C552.326 45.8679 552.509 45.292 552.509 44.4933V36.4853L562.192 23.496C563.126 22.1929 563.763 21.0579 564.103 20.091C564.443 19.1242 564.613 17.6739 564.613 15.7402V3.63368C564.613 2.83498 564.43 2.25487 564.065 1.89336C563.708 1.54025 563.126 1.3637 562.319 1.3637H552.828C552.021 1.3637 551.435 1.54025 551.069 1.89336C550.713 2.25487 550.534 2.83498 550.534 3.63368V13.9747C550.534 14.3951 550.513 14.8364 550.471 15.2989C550.428 15.7613 550.258 16.2026 549.961 16.623L547.031 21.163C546.818 21.5413 546.593 21.8145 546.355 21.9827C546.126 22.1508 545.841 22.2349 545.502 22.2349H544.865C544.525 22.2349 544.236 22.1508 543.998 21.9827C543.769 21.8145 543.548 21.5413 543.336 21.163L540.405 16.623C540.108 16.2026 539.938 15.7613 539.896 15.2989C539.853 14.8364 539.832 14.3951 539.832 13.9747V3.63368C539.832 2.83498 539.649 2.25487 539.284 1.89336C538.927 1.54025 538.346 1.3637 537.539 1.3637H527.728C526.921 1.3637 526.335 1.54025 525.97 1.89336C525.613 2.25487 525.435 2.83498 525.435 3.63368V15.7402C525.435 17.6739 525.592 19.1242 525.906 20.091C526.229 21.0579 526.879 22.1929 527.856 23.496L537.602 36.4223V44.4933C537.602 45.292 537.781 45.8679 538.137 46.221C538.503 46.5825 539.089 46.7633 539.896 46.7633ZM545.82 30.3059H545.374V41.0883H544.737V30.3059H544.1C543.166 30.3059 542.325 30.0958 541.577 29.6754C540.839 29.255 540.129 28.5824 539.45 27.6576L533.27 19.1452C532.803 18.5147 532.527 17.779 532.442 16.9383C532.357 16.0976 532.315 15.2148 532.315 14.29V7.03865H532.952V14.29C532.952 15.1727 532.994 16.0009 533.079 16.7743C533.164 17.5562 533.419 18.2624 533.844 18.893L540.023 27.4054C540.575 28.2461 541.212 28.8347 541.934 29.171C542.656 29.5072 543.378 29.6754 544.1 29.6754H545.82C546.627 29.6754 547.358 29.4946 548.012 29.1331C548.674 28.78 549.324 28.2041 549.961 27.4054L556.331 18.893C556.756 18.3465 557.011 17.6613 557.096 16.8374C557.181 16.0219 557.223 15.1727 557.223 14.29V7.03865H557.86V14.29C557.86 15.2148 557.826 16.0849 557.758 16.9005C557.699 17.7244 557.414 18.4726 556.905 19.1452L550.534 27.6576C549.855 28.5824 549.141 29.255 548.394 29.6754C547.655 30.0958 546.797 30.3059 545.82 30.3059Z" fill="#EE713F"/>
</g>
</g>
</g>
</g>
</g>
</g>
</g>
<defs>
<clipPath id="clip0_2_500">
<rect width="567" height="55" fill="white"/>
</clipPath>
<clipPath id="clip1_2_500">
<rect width="563.525" height="55.4253" fill="white" transform="translate(1.73764 -0.212677)"/>
</clipPath>
<clipPath id="clip2_2_500">
<rect width="563.525" height="55.4253" fill="white" transform="translate(1.73764 -0.212677)"/>
</clipPath>
<clipPath id="clip3_2_500">
<rect width="563.525" height="55.4253" fill="white" transform="translate(1.73764 -0.212677)"/>
</clipPath>
<clipPath id="clip4_2_500">
<rect width="563.525" height="55.4253" fill="white" transform="translate(1.73764 -0.212677)"/>
</clipPath>
<clipPath id="clip5_2_500">
<rect width="563.525" height="55.4253" fill="white" transform="translate(1.73764 -0.212677)"/>
</clipPath>
<clipPath id="clip6_2_500">
<rect width="563.525" height="55.4253" fill="white" transform="translate(1.73764 -0.212677)"/>
</clipPath>
</defs>
</svg>
